<?xml version="1.0" encoding="UTF-8"?>
<svg id="Layer_1" data-name="Layer 1" xmlns="http://www.w3.org/2000/svg" viewBox="0 0 1920 1080">
  <defs>
    <style>
      .cls-1 {
        fill: #54c34a;
      }

      .cls-1, .cls-2 {
        stroke-width: 0px;
      }

      .cls-2 {
        fill: #99adf2;
      }
    </style>
  </defs>
  <rect class="cls-2" width="1920" height="1080"/>
  <path class="cls-1" d="M1918,1080H0V0c373.44.22,1730.96,1,1731,1-6.42,12.61-12.03,22.91-16.16,30.31-5.74,10.27-7.67,13.24-10.84,19.69,0,0-6.92,14.05-12,31-10.13,33.78-7.73,136.02-18,199-8.77,53.76-14.17,85.12-39,117-41.8,53.66-105.2,66.64-118,69-1.39.26-3.39.57-7.27,1.11-17.95,2.47-103.57,14.3-182.73-2.11-102.51-21.25-114.12-73.24-183-62-10.3,1.68-40.69,7.05-65,31-25.69,25.31-30.26,58.51-34,79-22.31,122.13,16.85,280.44,8,370-1.68,17.02-5.97,40.37-20.58,63.72,0,0-13.03,20.83-33.42,36.28-47.24,35.8-160.74-2.91-274-17-74.16-9.23-201.08-14.47-310,47-12.23,6.9-63.91,65.99-64,66h1567Z"/>
</svg>