<?xml version="1.0" encoding="UTF-8"?>
<svg id="Layer_1" data-name="Layer 1" xmlns="http://www.w3.org/2000/svg" viewBox="0 0 608.63 375">
  <defs>
    <style>
      .cls-1 {
        fill: #fff;
        stroke-width: 0px;
      }
    </style>
  </defs>
  <path class="cls-1" d="M5.72,375c-1.72-8.6-4.21-16.89-4.95-25.33-5.63-64.59,19.47-115.69,69.34-155.6,2.61-2.09,3.85-4.01,3.65-7.4-.37-6.31-.03-12.67-.42-18.98-.24-3.94-1.07-7.88-2.04-11.72-.67-2.63-2.73-5.05.91-7.23.66-.39.42-2.5.38-3.81-1.18-38.63-2.4-77.25-3.58-115.88-.21-6.83-.24-13.66-.46-20.49-.13-4.01,1.56-6.85,5.3-8.1,3.52-1.18,6.53,0,8.83,2.94,5.94,7.59,11.91,15.17,18.45,23.5,2.56-6.49,5.02-12.34,7.16-18.3,1.35-3.75,3.28-6.52,7.59-6.82,4.16-.29,6.34,2.25,8.02,5.58,3.67,7.28,7.25,14.61,11.22,21.72.8,1.44,3.19,2.92,4.78,2.85,13.5-.57,24.3,4.24,32.66,14.93,1.07,1.37,3.62,2.2,5.5,2.24,13.33.23,26.66.18,39.99.23,13.21.04,15.24,2.08,13.04,14.96-4.74,27.74-19.62,48.12-45.61,59.4-5.4,2.34-12.02,1.86-18.09,2.62-1.77.22-3.57.23-6.08.38,3.34,7.02,6.3,13.67,9.72,20.06.68,1.27,3.26,2.42,4.77,2.21,8.94-1.24,16.73,1.09,24.01,6.22,1.77,1.25,4.31,1.63,6.56,1.9,9.76,1.19,13.52,4.96,12.44,14.79-.58,5.25-2.15,11.12-5.26,15.21-5.56,7.34-4.98,14.06-.95,21.27,2.51,4.5,5.45,8.76,8.04,13.22,8.08,13.94,13.04,28.87,12.39,45.09-.36,8.94-1.97,17.85-3.23,26.74-2.77,19.56.12,37.81,12.04,54.09.38.51.51,1.2.8,1.91-9.61-3.56-17.51-12.78-18.7-25.77-1.2-13.14-1.25-26.66.45-39.72,2.12-16.32,3.18-32.19-3.89-47.44-3.55-7.66-8.16-14.82-12.18-22.27-1.58-2.92-3.01-5.93-4.25-9-2.93-7.28-1.32-13.67,2.94-20.23,2.77-4.27,4.15-9.61,5.37-14.66.85-3.51-1.25-5.51-5.13-6.43-4.89-1.17-9.68-3.1-14.22-5.31-5.75-2.8-11.4-4.22-17.8-2.53-1.72.45-4.68-.16-5.71-1.41-3.14-3.78-5.74-8.03-8.29-12.25-1.33-2.2-2.11-4.73-4.15-6.97-.68,5.49-.74,11.15-2.23,16.41-1.37,4.83-3.37,10.09-6.71,13.64-8.68,9.24-8.77,20.13-7.41,31.3.72,5.88,3.53,11.5,4.31,17.38.63,4.76.47,9.96-.79,14.56-4.38,16-14.88,28.79-23.52,42.52-8.07,12.83-16.52,25.47-19.07,40.84-.73,4.42-1.39,8.93-1.31,13.38.06,3.55-1.32,4.9-4.41,6.01-17.06,6.11-34.13,12.19-51.03,18.72-13.89,5.37-27.17,11.91-36.75,24.01-.25.31-.87.33-2.43.86Z"/>
  <g>
    <path class="cls-1" d="M269.42,175.31c-1.68,0-3.05-.38-4.09-1.12-1.05-.75-1.7-1.78-1.93-3.1-.24-1.32,0-2.79.72-4.41l23.13-50.58c.96-1.98,2.12-3.42,3.46-4.32,1.35-.9,2.87-1.35,4.54-1.35s3.27.45,4.59,1.35c1.32.9,2.46,2.34,3.42,4.32l23.13,50.58c.78,1.68,1.06,3.17.85,4.46-.21,1.29-.84,2.31-1.89,3.06-1.05.75-2.36,1.12-3.92,1.12-2.04,0-3.62-.47-4.73-1.4-1.11-.93-2.08-2.41-2.92-4.46l-5.4-12.51,5.58,3.87h-37.53l5.58-3.87-5.31,12.51c-.96,2.04-1.92,3.53-2.88,4.46-.96.93-2.43,1.4-4.41,1.4ZM295.16,125.99l-11.61,27.54-2.43-3.6h28.17l-2.34,3.6-11.61-27.54h-.18Z"/>
    <path class="cls-1" d="M341.06,175.31c-2.1,0-3.75-.59-4.95-1.76s-1.8-2.86-1.8-5.08v-31.95c0-2.22.58-3.92,1.75-5.08,1.17-1.17,2.83-1.76,5-1.76s3.72.58,4.86,1.76c1.14,1.17,1.71,2.87,1.71,5.08v5.13l-.99-2.88c1.32-3,3.36-5.29,6.12-6.89,2.76-1.59,5.85-2.38,9.27-2.38,3.6,0,6.52.67,8.77,2.02s3.94,3.41,5.08,6.17c1.14,2.76,1.71,6.24,1.71,10.44v20.34c0,2.22-.57,3.92-1.71,5.08-1.14,1.17-2.82,1.76-5.04,1.76-2.1,0-3.77-.59-5-1.76-1.23-1.17-1.84-2.86-1.84-5.08v-19.8c0-3.06-.56-5.27-1.67-6.62-1.11-1.35-2.78-2.02-5-2.02-2.88,0-5.17.9-6.88,2.7-1.71,1.8-2.57,4.2-2.57,7.2v18.54c0,4.56-2.28,6.84-6.84,6.84Z"/>
    <path class="cls-1" d="M394.61,122.39c-2.46,0-4.35-.6-5.67-1.8-1.32-1.2-1.98-2.91-1.98-5.13s.66-3.83,1.98-5c1.32-1.17,3.21-1.75,5.67-1.75s4.46.58,5.81,1.75c1.35,1.17,2.02,2.83,2.02,5s-.67,3.93-2.02,5.13c-1.35,1.2-3.29,1.8-5.81,1.8ZM394.61,175.31c-2.1,0-3.75-.65-4.95-1.94s-1.8-3.1-1.8-5.45v-30.87c0-2.4.6-4.21,1.8-5.45,1.2-1.23,2.85-1.84,4.95-1.84,2.22,0,3.92.62,5.08,1.84,1.17,1.23,1.75,3.05,1.75,5.45v30.87c0,2.34-.57,4.16-1.71,5.45s-2.85,1.94-5.13,1.94Z"/>
    <path class="cls-1" d="M418.91,175.31c-2.1,0-3.75-.59-4.95-1.76-1.2-1.17-1.8-2.86-1.8-5.08v-31.95c0-2.22.58-3.92,1.75-5.08,1.17-1.17,2.83-1.76,5-1.76s3.72.58,4.86,1.76c1.14,1.17,1.71,2.87,1.71,5.08v5.67l-.99-3.42c1.2-2.82,3.06-5.07,5.58-6.75,2.52-1.68,5.49-2.52,8.91-2.52s6.27.81,8.55,2.43c2.28,1.62,3.9,4.08,4.86,7.38h-1.26c1.32-3,3.36-5.38,6.12-7.16,2.76-1.77,5.88-2.65,9.36-2.65s6.15.66,8.37,1.98c2.22,1.32,3.87,3.38,4.95,6.17s1.62,6.29,1.62,10.48v20.34c0,2.22-.58,3.92-1.75,5.08s-2.87,1.76-5.08,1.76c-2.1,0-3.75-.59-4.95-1.76-1.2-1.17-1.8-2.86-1.8-5.08v-19.89c0-3-.45-5.18-1.35-6.53-.9-1.35-2.52-2.02-4.86-2.02-2.52,0-4.5.9-5.94,2.7-1.44,1.8-2.16,4.35-2.16,7.65v18.09c0,2.22-.58,3.92-1.75,5.08s-2.83,1.76-5,1.76-3.84-.59-5.04-1.76-1.8-2.86-1.8-5.08v-19.89c0-3-.48-5.18-1.44-6.53-.96-1.35-2.52-2.02-4.68-2.02-2.58,0-4.59.9-6.03,2.7-1.44,1.8-2.16,4.35-2.16,7.65v18.09c0,4.56-2.28,6.84-6.84,6.84Z"/>
    <path class="cls-1" d="M507.02,175.49c-3.36,0-6.3-.62-8.82-1.84-2.52-1.23-4.5-2.91-5.94-5.04-1.44-2.13-2.16-4.57-2.16-7.33,0-3.24.84-5.79,2.52-7.65,1.68-1.86,4.39-3.21,8.15-4.05,3.75-.84,8.74-1.26,14.99-1.26h4.77v7.02h-4.68c-3.12,0-5.6.17-7.43.49-1.83.33-3.17.9-4,1.71-.84.81-1.26,1.88-1.26,3.2,0,1.62.58,2.97,1.75,4.05s2.83,1.62,5,1.62c1.74,0,3.3-.39,4.68-1.17,1.38-.78,2.46-1.86,3.24-3.24.78-1.38,1.17-3.03,1.17-4.95v-10.26c0-2.64-.6-4.51-1.8-5.62-1.2-1.11-3.27-1.67-6.21-1.67-1.56,0-3.29.18-5.17.54-1.89.36-3.98,1.02-6.25,1.98-1.38.54-2.57.66-3.56.36-.99-.3-1.75-.88-2.29-1.75-.54-.87-.81-1.84-.81-2.92s.3-2.1.9-3.06c.6-.96,1.62-1.68,3.06-2.16,2.76-1.08,5.38-1.84,7.88-2.29,2.49-.45,4.75-.67,6.79-.67,4.62,0,8.44.67,11.47,2.02,3.03,1.35,5.28,3.44,6.75,6.25,1.47,2.82,2.21,6.39,2.21,10.71v19.98c0,2.22-.55,3.92-1.67,5.08s-2.65,1.76-4.63,1.76-3.62-.59-4.72-1.76c-1.11-1.17-1.67-2.86-1.67-5.08v-3.33l.63.63c-.36,1.98-1.12,3.69-2.29,5.13s-2.64,2.56-4.41,3.38c-1.77.81-3.83,1.21-6.17,1.21Z"/>
    <path class="cls-1" d="M558.05,175.49c-5.34,0-9.33-1.47-11.97-4.41-2.64-2.94-3.96-7.35-3.96-13.23v-40.59c0-2.28.6-3.99,1.8-5.13,1.2-1.14,2.85-1.71,4.95-1.71,2.22,0,3.92.57,5.08,1.71,1.17,1.14,1.75,2.85,1.75,5.13v40.05c0,2.46.53,4.27,1.58,5.44,1.05,1.17,2.44,1.75,4.19,1.75.48,0,.94-.03,1.39-.09.45-.06.88-.12,1.3-.18.96-.06,1.63.26,2.03.95.39.69.58,2.09.58,4.18,0,1.74-.36,3.09-1.08,4.05-.72.96-1.83,1.56-3.33,1.8-.54.06-1.2.12-1.98.18-.78.06-1.56.09-2.34.09Z"/>
    <path class="cls-1" d="M589.01,175.49c-2.58,0-5.28-.23-8.1-.67-2.82-.45-5.34-1.24-7.56-2.39-1.26-.6-2.15-1.36-2.66-2.29-.51-.93-.74-1.89-.67-2.88.06-.99.37-1.86.94-2.61.57-.75,1.32-1.26,2.25-1.53.93-.27,1.96-.16,3.11.31,2.46,1.02,4.72,1.74,6.79,2.16,2.07.42,4.06.63,5.99.63,2.52,0,4.38-.42,5.58-1.26,1.2-.84,1.8-1.92,1.8-3.24,0-1.14-.39-1.99-1.17-2.56-.78-.57-1.92-1-3.42-1.31l-9.54-1.71c-3.66-.72-6.5-2.1-8.51-4.14-2.01-2.04-3.01-4.68-3.01-7.92,0-3.06.84-5.67,2.52-7.83,1.68-2.16,4-3.83,6.97-5s6.34-1.75,10.12-1.75c2.7,0,5.17.24,7.42.72,2.25.48,4.46,1.29,6.62,2.43,1.08.48,1.84,1.17,2.29,2.07s.58,1.83.41,2.79c-.18.96-.56,1.82-1.12,2.56-.57.75-1.32,1.26-2.25,1.53-.93.27-2.03.13-3.29-.41-1.92-.78-3.69-1.36-5.31-1.75-1.62-.39-3.12-.58-4.5-.58-2.76,0-4.76.42-5.98,1.26-1.23.84-1.85,1.92-1.85,3.24,0,1.02.36,1.88,1.08,2.56.72.69,1.8,1.16,3.24,1.4l9.54,1.62c3.84.72,6.78,2.06,8.82,4,2.04,1.95,3.06,4.58,3.06,7.88,0,4.68-1.79,8.3-5.35,10.85-3.57,2.55-8.33,3.82-14.27,3.82Z"/>
    <path class="cls-1" d="M269.42,251.31c-1.68,0-3.05-.38-4.09-1.12-1.05-.75-1.7-1.78-1.93-3.1-.24-1.32,0-2.79.72-4.41l23.13-50.58c.96-1.98,2.12-3.42,3.46-4.32,1.35-.9,2.87-1.35,4.54-1.35s3.27.45,4.59,1.35c1.32.9,2.46,2.34,3.42,4.32l23.13,50.58c.78,1.68,1.06,3.17.85,4.46-.21,1.29-.84,2.31-1.89,3.06-1.05.75-2.36,1.12-3.92,1.12-2.04,0-3.62-.46-4.73-1.39s-2.08-2.42-2.92-4.46l-5.4-12.51,5.58,3.87h-37.53l5.58-3.87-5.31,12.51c-.96,2.04-1.92,3.53-2.88,4.46-.96.93-2.43,1.39-4.41,1.39ZM295.16,201.99l-11.61,27.54-2.43-3.6h28.17l-2.34,3.6-11.61-27.54h-.18Z"/>
    <path class="cls-1" d="M341.06,198.39c-2.46,0-4.35-.6-5.67-1.8-1.32-1.2-1.98-2.91-1.98-5.13s.66-3.83,1.98-5c1.32-1.17,3.21-1.75,5.67-1.75s4.46.58,5.81,1.75c1.35,1.17,2.02,2.83,2.02,5s-.67,3.93-2.02,5.13c-1.35,1.2-3.29,1.8-5.81,1.8ZM341.06,251.31c-2.1,0-3.75-.65-4.95-1.93-1.2-1.29-1.8-3.11-1.8-5.45v-30.87c0-2.4.6-4.21,1.8-5.44,1.2-1.23,2.85-1.85,4.95-1.85,2.22,0,3.92.62,5.08,1.85,1.17,1.23,1.75,3.05,1.75,5.44v30.87c0,2.34-.57,4.16-1.71,5.45-1.14,1.29-2.85,1.93-5.13,1.93Z"/>
    <path class="cls-1" d="M375.62,251.49c-3.84,0-7.22-.91-10.12-2.75-2.91-1.83-5.17-4.48-6.79-7.96-1.62-3.48-2.43-7.59-2.43-12.33s.81-8.82,2.43-12.24,3.88-6.06,6.79-7.92c2.91-1.86,6.28-2.79,10.12-2.79,3.48,0,6.57.84,9.27,2.52,2.7,1.68,4.5,3.87,5.4,6.57h-.99v-21.33c0-2.28.57-3.99,1.71-5.13s2.82-1.71,5.04-1.71,3.84.57,5.04,1.71c1.2,1.14,1.8,2.85,1.8,5.13v51.21c0,2.22-.58,3.92-1.75,5.08s-2.81,1.75-4.91,1.75c-2.22,0-3.91-.58-5.08-1.75-1.17-1.17-1.75-2.86-1.75-5.08v-6.12l.99,3.51c-.84,2.94-2.62,5.28-5.35,7.02-2.73,1.74-5.87,2.61-9.41,2.61ZM379.67,241.41c1.98,0,3.69-.46,5.13-1.4,1.44-.93,2.58-2.35,3.42-4.27.84-1.92,1.26-4.35,1.26-7.29,0-4.38-.9-7.61-2.7-9.68-1.8-2.07-4.17-3.1-7.11-3.1-1.92,0-3.62.45-5.08,1.35-1.47.9-2.61,2.31-3.42,4.23-.81,1.92-1.21,4.32-1.21,7.2,0,4.44.9,7.71,2.7,9.81,1.8,2.1,4.14,3.15,7.02,3.15Z"/>
  </g>
</svg>